<?xml version="1.0" encoding="UTF-8"?>
<svg width="600" height="400" viewBox="0 0 600 400" fill="none" xmlns="http://www.w3.org/2000/svg">
    <rect width="600" height="400" fill="#E5E7EB"/>
    <path d="M280 180H320M260 200H340M240 220H360" stroke="#9CA3AF" stroke-width="8" stroke-linecap="round"/>
    <path d="M300 140C307.732 140 314 133.732 314 126C314 118.268 307.732 112 300 112C292.268 112 286 118.268 286 126C286 133.732 292.268 140 300 140Z" fill="#9CA3AF"/>
    <path fill-rule="evenodd" clip-rule="evenodd" d="M240 260C240 237.909 257.909 220 280 220H320C342.091 220 360 237.909 360 260V268C360 271.314 357.314 274 354 274H246C242.686 274 240 271.314 240 268V260Z" fill="#9CA3AF"/>
</svg> 